<svg xmlns="http://www.w3.org/2000/svg" viewBox="0 0 55 171"><title>Asset 3</title><g id="bcf9b297-f99a-4a33-b11e-f1f6ba3869b3" data-name="Layer 2"><g id="f2029308-4f13-42d7-8fe2-07a6b0340208" data-name="Layer 1"><path d="M5.14,85.4s6.68-52.78,11.65-50.59L17,35h.4A7.08,7.08,0,0,1,15,30.22V11.76A6.78,6.78,0,0,1,21.76,5H33.24A6.78,6.78,0,0,1,40,11.76V30.22A7.08,7.08,0,0,1,37.63,35h.42l.18-.19C43.25,32.63,50,85.09,50,85.09V84l-.07.54s.07-.33.07.56v79.28A1.63,1.63,0,0,1,48.37,166H6.63A1.63,1.63,0,0,1,5,164.37V84.88c0-.9.07-.57.07-.57L5,83.76" style="fill:none;stroke:#000;stroke-miterlimit:10;stroke-width:10px"/></g></g></svg>