<svg id="fa0f9d2c-ab38-4af4-9112-e11d54a63348" data-name="Layer 1" xmlns="http://www.w3.org/2000/svg" viewBox="0 0 34.99 99.41"><title>Asset 1</title><path d="M6.08,49.65s3.71-29.31,6.47-28.1l.1.11h.22A3.92,3.92,0,0,1,11.55,19V8.76A3.77,3.77,0,0,1,15.31,5h6.37a3.77,3.77,0,0,1,3.76,3.76V19a3.92,3.92,0,0,1-1.32,2.66h.23l.11-.11C27.24,20.35,31,49.48,31,49.48v-.61l0,.3s0-.18,0,.31v44a.91.91,0,0,1-.9.9H6.9a.91.91,0,0,1-.9-.9V49.36c0-.5,0-.32,0-.32l0-.3" transform="translate(-1)" style="fill:none;stroke:#000;stroke-miterlimit:10;stroke-width:10px"/></svg>