<svg xmlns="http://www.w3.org/2000/svg" viewBox="0 0 34.99 99.41"><title>Asset 4</title><g id="b27725c0-18fe-40bc-8cf6-b28c2e07055e" data-name="Layer 2"><g id="a004f7de-3876-4a25-804b-3a4455394788" data-name="Layer 1"><path d="M5.08,49.65s3.71-29.31,6.47-28.1l.1.11h.22A3.92,3.92,0,0,1,10.55,19V8.76A3.77,3.77,0,0,1,14.31,5h6.37a3.77,3.77,0,0,1,3.76,3.76V19a3.92,3.92,0,0,1-1.32,2.66h.23l.11-.11C26.24,20.35,30,49.48,30,49.48v-.61l0,.3s0-.18,0,.31v44a.91.91,0,0,1-.9.9H5.9a.91.91,0,0,1-.9-.9V49.36c0-.5,0-.32,0-.32l0-.3" style="fill:none;stroke:#000;stroke-miterlimit:10;stroke-width:10px"/></g></g></svg>