<svg xmlns="http://www.w3.org/2000/svg" viewBox="0 0 54.53 171.74"><title>Asset 2</title><g id="ba0c173c-a297-4411-9e98-a4afa8c7704e" data-name="Layer 2"><g id="eee0c3bd-cc6f-4f45-ad4e-f581a8adc727" data-name="Layer 1"><path d="M5,85.34s6.68-52.79,11.64-50.6l.19.19h.37a7.06,7.06,0,0,1-2.35-4.77V11.76A6.78,6.78,0,0,1,21.61,5H32.92a6.79,6.79,0,0,1,6.77,6.76v18.4a7.1,7.1,0,0,1-2.35,4.77h.36l.19-.19c5-2.19,11.64,50.6,11.64,50.6V84.22l-.07.55s.07-.33.07.57v79.77a1.63,1.63,0,0,1-1.62,1.63H6.63A1.63,1.63,0,0,1,5,165.11V85.34c0-.9.07-.57.07-.57L5,84.22" style="fill:none;stroke:#000;stroke-miterlimit:10;stroke-width:10px"/></g></g></svg>