<svg id="e3f1af2d-6d8b-49c8-ae91-991db9a1c8f9" data-name="Layer 1" xmlns="http://www.w3.org/2000/svg" viewBox="0 0 201.47 705.39"><title>bottle2</title><path d="M1291.43,1361.49s28.71-226.94,50.06-217.55l.8.84h1.58c-5.26-5.27-10.1-12.53-10.1-20.52v-79.09a29.16,29.16,0,0,1,29.08-29.08h48.64a29.17,29.17,0,0,1,29.08,29.08v79.09c0,8-4.85,15.25-10.11,20.52H1432l.8-.84c21.35-9.39,50.06,217.55,50.06,217.55v-4.79l-.31,2.35s.31-1.41.31,2.44v343a7,7,0,0,1-7,7H1298.43a7,7,0,0,1-7-7v-343c0-3.85.31-2.44.31-2.44l-.31-2.35" transform="translate(-1286.43 -1011.09)" style="fill:none;stroke:#000;stroke-miterlimit:10;stroke-width:10px"/></svg>